<svg width="20" height="20" viewBox="0 0 40 40" fill="currentColor" xmlns="http://www.w3.org/2000/svg" class="injected-svg" data-src="/assets/buzzIcons/square-code-solido.svg" xmlns:xlink="http://www.w3.org/1999/xlink" role="img" style="height: undefined; width: 24; margin-top: 7; margin-left: undefined; margin-right: undefined; margin-bottom: undefined">
    <path d="M0 5.71429C0 2.5625 2.5625 0 5.71429 0H34.2857C37.4375 0 40 2.5625 40 5.71429V34.2857C40 37.4375 37.4375 40 34.2857 40H5.71429C2.5625 40 0 37.4375 0 34.2857V5.71429ZM23.4107 12.1339C22.6161 13.0179 22.6875 14.3661 23.5714 15.1607L28.9375 20L23.5625 24.8393C22.6786 25.6339 22.6071 26.9821 23.4018 27.8661C24.1964 28.75 25.5446 28.8214 26.4286 28.0268L33.5714 21.5982C34.0268 21.1875 34.2768 20.6161 34.2768 20.0089C34.2768 19.4018 34.0179 18.8214 33.5714 18.4196L26.4286 11.9911C25.5446 11.1964 24.1964 11.2679 23.4018 12.1518L23.4107 12.1339ZM16.4375 15.1607C17.3214 14.3661 17.3929 13.0179 16.5982 12.1339C15.8036 11.25 14.4554 11.1786 13.5714 11.9732L6.42857 18.4018C5.97321 18.8125 5.72321 19.3839 5.72321 19.9911C5.72321 20.5982 5.98214 21.1786 6.42857 21.5804L13.5714 28.0089C14.4554 28.8036 15.8036 28.7321 16.5982 27.8482C17.3929 26.9643 17.3214 25.6161 16.4375 24.8214L11.0625 20L16.4375 15.1607Z" fill="#FFFFFF">
</path>
<path d="M0 5.71429C0 2.5625 2.5625 0 5.71429 0H34.2857C37.4375 0 40 2.5625 40 5.71429V34.2857C40 37.4375 37.4375 40 34.2857 40H5.71429C2.5625 40 0 37.4375 0 34.2857V5.71429ZM23.4107 12.1339C22.6161 13.0179 22.6875 14.3661 23.5714 15.1607L28.9375 20L23.5625 24.8393C22.6786 25.6339 22.6071 26.9821 23.4018 27.8661C24.1964 28.75 25.5446 28.8214 26.4286 28.0268L33.5714 21.5982C34.0268 21.1875 34.2768 20.6161 34.2768 20.0089C34.2768 19.4018 34.0179 18.8214 33.5714 18.4196L26.4286 11.9911C25.5446 11.1964 24.1964 11.2679 23.4018 12.1518L23.4107 12.1339ZM16.4375 15.1607C17.3214 14.3661 17.3929 13.0179 16.5982 12.1339C15.8036 11.25 14.4554 11.1786 13.5714 11.9732L6.42857 18.4018C5.97321 18.8125 5.72321 19.3839 5.72321 19.9911C5.72321 20.5982 5.98214 21.1786 6.42857 21.5804L13.5714 28.0089C14.4554 28.8036 15.8036 28.7321 16.5982 27.8482C17.3929 26.9643 17.3214 25.6161 16.4375 24.8214L11.0625 20L16.4375 15.1607Z" fill="#14A695">
</path>
</svg>
