<svg width="20" height="20" viewBox="0 0 40 41" fill="currentColor" xmlns="http://www.w3.org/2000/svg" 
data-src="/assets/buzzIcons/user-group-solido.svg" xmlns:xlink="http://www.w3.org/1999/xlink" 
role="img">
<path d="M10 8C10 5.79375 11.7937 4 14 4H36C38.2062 4 40 5.79375 40 8V26C40 28.2062 38.2062 30 36 30H21.05C20.3125 28.4062 19.1812 27.0312 17.775 26H24V24C24 22.8937 24.8937 22 26 22H30C31.1063 22 32 22.8937 32 24V26H36V8H14V11.0687C12.825 10.3875 11.4563 10 10 10V8ZM10 24C6.6875 24 4 21.3125 4 18C4 14.6875 6.6875 12 10 12C13.3125 12 16 14.6875 16 18C16 21.3125 13.3125 24 10 24ZM8.33125 26H11.6625C16.2687 26 20 29.7312 20 34.3312C20 35.25 19.2562 36 18.3312 36H1.66875C0.74375 36 0 35.2562 0 34.3312C0 29.7312 3.73125 26 8.33125 26Z" 
fill="#22b8cf"></path>
</svg>
