<svg width="20" height="20" viewBox="0 0 40 41" fill="currentColor" xmlns="http://www.w3.org/2000/svg" 
data-src="/assets/buzzIcons/user-group-solido.svg" xmlns:xlink="http://www.w3.org/1999/xlink" 
role="img">
<path d="M27.5 7.5C27.5 11.6406 24.1406 15 20 15C15.8594 15 12.5 11.6406 12.5 7.5C12.5 3.35938 15.8594 0 20 0C24.1406 0 27.5 3.35938 27.5 7.5ZM18.75 19.375V40L14.9688 38.1094C13.3359 37.2969 11.5703 36.7812 9.75 36.6016L2.25 35.8516C0.976562 35.7188 0 34.6484 0 33.3594V17.5C0 16.1172 1.11719 15 2.5 15H4.86719C9.83594 15 14.6797 16.5312 18.75 19.375ZM21.25 40V19.375C25.3203 16.5312 30.1641 15 35.1328 15H37.5C38.8828 15 40 16.1172 40 17.5V33.3594C40 34.6406 39.0234 35.7188 37.75 35.8438L30.25 36.5938C28.4375 36.7734 26.6641 37.2891 25.0312 38.1016L21.25 40Z" 
fill="#b3b3c3"></path>
</svg>
