<svg width="20" height="20" viewBox="0 0 40 41" fill="currentColor" xmlns="http://www.w3.org/2000/svg" 
data-src="/assets/buzzIcons/user-group-solido.svg" xmlns:xlink="http://www.w3.org/1999/xlink" 
role="img">
<path d="M22 12.7253C22 17.1441 18.4188 20.7253 14 20.7253C9.58125 20.7253 6 17.1441 6 12.7253C6 8.30659 9.58125 4.72534 14 4.72534C18.4188 4.72534 22 8.30659 22 12.7253ZM0 34.8691C0 28.7128 4.9875 23.7253 11.1438 23.7253H16.8563C23.0125 23.7253 28 28.7128 28 34.8691C28 35.8941 27.1687 36.7253 26.1437 36.7253H1.85625C0.83125 36.7253 0 35.8941 0 34.8691ZM38.0812 36.7253H29.4625C29.8 36.1378 30 35.4566 30 34.7253V34.2253C30 30.4316 28.3063 27.0253 25.6375 24.7378C25.7875 24.7316 25.9312 24.7253 26.0812 24.7253H29.9188C35.4875 24.7253 40 29.2378 40 34.8066C40 35.8691 39.1375 36.7253 38.0812 36.7253ZM27 20.7253C25.0625 20.7253 23.3125 19.9378 22.0438 18.6691C23.275 17.0066 24 14.9503 24 12.7253C24 11.0503 23.5875 9.46909 22.8563 8.08159C24.0188 7.23159 25.45 6.72534 27 6.72534C30.8687 6.72534 34 9.85659 34 13.7253C34 17.5941 30.8687 20.7253 27 20.7253Z" 
fill="#9446b3"></path>
</svg>
