<?xml version="1.0"?>
<svg width="22" height="40" viewBox="0 0 40 41" fill="currentColor" xmlns="http://www.w3.org/2000/svg"
data-src="/assets/buzzIcons/user-group-solido.svg" xmlns:xlink="http://www.w3.org/1999/xlink" 
role="img">
 <g class="layer">
  <title>Layer 1</title>
  <path d="m27.5,10.51c0,3.87 -3.36,7.01 -7.5,7.01c-4.14,0 -7.5,-3.14 -7.5,-7.01c0,-3.87 3.36,-7.01 7.5,-7.01c4.14,0 7.5,3.14 7.5,7.01zm-8.75,11.11l0,19.28l-3.78,-1.77c-1.63,-0.76 -3.4,-1.24 -5.22,-1.41l-7.5,-0.7c-1.27,-0.12 -2.25,-1.12 -2.25,-2.33l0,-14.83c0,-1.29 1.12,-2.34 2.5,-2.34l2.37,0c4.97,0 9.81,1.43 13.88,4.1zm2.5,19.28l0,-19.28c4.07,-2.66 8.91,-4.1 13.88,-4.1l2.37,0c1.38,0 2.5,1.05 2.5,2.34l0,14.83c0,1.2 -0.98,2.21 -2.25,2.32l-7.5,0.7c-1.81,0.17 -3.59,0.65 -5.22,1.41l-3.78,1.78z" fill="#ff4545" id="svg_1" transform="matrix(1, 0, 0, 1, 0, 0)"/>
  <path d="m12.94,4.95l2.17,-4.45l2.17,4.45z" fill="#ff4545" id="svg_3" stroke="#ff4545" transform="rotate(-28.9045, 15.1045, 2.72275)"/>
  <path d="m22.19,5.19l2.17,-4.45l2.17,4.45z" fill="#ff4545" id="svg_9" stroke="#ff4545" transform="rotate(24.7102, 24.3598, 2.96369)"/>
 </g>
</svg>
