<?xml version="1.0"?>
<svg width="40" height="41" xmlns="http://www.w3.org/2000/svg" xmlns:svg="http://www.w3.org/2000/svg" data-src="/assets/buzzIcons/user-group-solido.svg">

 <g class="layer">
  <title>Layer 1</title>
  <path d="m27.5,9.29c0,4.03 -3.36,7.29 -7.5,7.29c-4.14,0 -7.5,-3.27 -7.5,-7.29c0,-4.03 3.36,-7.29 7.5,-7.29c4.14,0 7.5,3.27 7.5,7.29zm-8.75,11.55l0,20.05l-3.78,-1.84c-1.63,-0.79 -3.4,-1.29 -5.22,-1.47l-7.5,-0.73c-1.27,-0.13 -2.25,-1.17 -2.25,-2.42l0,-15.42c0,-1.34 1.12,-2.43 2.5,-2.43l2.37,0c4.97,0 9.81,1.49 13.88,4.26zm2.5,20.05l0,-20.05c4.07,-2.77 8.91,-4.26 13.88,-4.26l2.37,0c1.38,0 2.5,1.09 2.5,2.43l0,15.42c0,1.24 -0.98,2.3 -2.25,2.41l-7.5,0.73c-1.81,0.18 -3.59,0.68 -5.22,1.47l-3.78,1.85z" fill="#ff4545" id="svg_1"/>
  <path d="m12.52,4.29l1.81,-3.71l1.81,3.71z" fill="#ff4545" id="svg_3" stroke="#ff4545" transform="rotate(-35.6987, 14.3272, 2.43471)"/>
  <path d="m24.13,4.48l1.81,-3.71l1.81,3.71z" fill="#ff4545" id="svg_8" stroke="#ff4545" transform="matrix(1, 0, 0, 1, 0, 0) rotate(34.0812, 25.9394, 2.62352)"/>
 </g>
</svg>